<!-- Generated by IcoMoon.io -->
<svg version="1.1" xmlns="http://www.w3.org/2000/svg" width="768" height="768" viewBox="0 0 768 768">
<title></title>
<g id="icomoon-ignore">
</g>
<path fill="#000" d="M400.5 415.5q0-34.5 48-76.5t48-82.5q0-52.5-38.25-90.75t-90.75-38.25-90 38.25-37.5 90.75h64.5q0-25.5 18.75-45t44.25-19.5 45 19.5 19.5 45q0 21-15 37.5t-33 27-33 35.25-15 59.25h64.5zM400.5 528v-64.5h-64.5v64.5h64.5zM367.5 64.5q112.5 0 192.75 79.5t80.25 192q0 109.5-70.5 210.75t-186 156.75v-96h-16.5q-112.5 0-192-79.5t-79.5-192 79.5-192 192-79.5z"></path>
</svg>
